<?xml version="1.0" encoding="UTF-8" standalone="no"?>
<!DOCTYPE svg PUBLIC "-//W3C//DTD SVG 1.1//EN"
 "http://www.w3.org/Graphics/SVG/1.1/DTD/svg11.dtd">
<!-- Generated by graphviz version 2.38.0 (20140413.2041)
 -->
<!-- Title: G Pages: 1 -->
<svg width="1152pt" height="361pt"
 viewBox="0.00 0.00 1152.00 360.64" xmlns="http://www.w3.org/2000/svg" xmlns:xlink="http://www.w3.org/1999/xlink">
<g id="graph0" class="graph" transform="scale(0.892677 0.892677) rotate(0) translate(4 400)">
<title>G</title>
<!-- dep_check.main -->
<g id="node1" class="node"><title>dep_check.main</title>
<polygon fill="white" stroke="black" points="580,-396 459,-396 459,-360 580,-360 580,-396"/>
<text text-anchor="middle" x="519.5" y="-374.3" font-family="Arial" font-size="14.00">dep_check.main</text>
</g>
<!-- dep_check.use_cases.check -->
<g id="node2" class="node"><title>dep_check.use_cases.check</title>
<polygon fill="white" stroke="black" points="774.5,-252 572.5,-252 572.5,-216 774.5,-216 774.5,-252"/>
<text text-anchor="middle" x="673.5" y="-230.3" font-family="Arial" font-size="14.00">dep_check.use_cases.check</text>
</g>
<!-- dep_check.main&#45;&gt;dep_check.use_cases.check -->
<g id="edge1" class="edge"><title>dep_check.main&#45;&gt;dep_check.use_cases.check</title>
<path fill="none" stroke="black" d="M580.036,-362.088C602.185,-353.999 625.866,-341.871 642.5,-324 658.302,-307.023 666.109,-281.56 669.93,-262.213"/>
<polygon fill="black" stroke="black" points="673.408,-262.638 671.668,-252.187 666.511,-261.442 673.408,-262.638"/>
</g>
<!-- dep_check.use_cases.build -->
<g id="node3" class="node"><title>dep_check.use_cases.build</title>
<polygon fill="white" stroke="black" points="406.5,-252 212.5,-252 212.5,-216 406.5,-216 406.5,-252"/>
<text text-anchor="middle" x="309.5" y="-230.3" font-family="Arial" font-size="14.00">dep_check.use_cases.build</text>
</g>
<!-- dep_check.main&#45;&gt;dep_check.use_cases.build -->
<g id="edge2" class="edge"><title>dep_check.main&#45;&gt;dep_check.use_cases.build</title>
<path fill="none" stroke="black" d="M494.169,-359.871C456.486,-334.391 385.593,-286.454 343.454,-257.959"/>
<polygon fill="black" stroke="black" points="345.165,-254.891 334.921,-252.189 341.244,-260.69 345.165,-254.891"/>
</g>
<!-- dep_check.infra.std_lib_filter -->
<g id="node4" class="node"><title>dep_check.infra.std_lib_filter</title>
<polygon fill="white" stroke="black" points="199,-180 0,-180 0,-144 199,-144 199,-180"/>
<text text-anchor="middle" x="99.5" y="-158.3" font-family="Arial" font-size="14.00">dep_check.infra.std_lib_filter</text>
</g>
<!-- dep_check.main&#45;&gt;dep_check.infra.std_lib_filter -->
<g id="edge3" class="edge"><title>dep_check.main&#45;&gt;dep_check.infra.std_lib_filter</title>
<path fill="none" stroke="black" d="M458.893,-374.715C371.205,-370.276 214.61,-357.748 170.5,-324 127.55,-291.14 110.049,-226.739 103.339,-190.131"/>
<polygon fill="black" stroke="black" points="106.772,-189.436 101.654,-180.16 99.8697,-190.603 106.772,-189.436"/>
</g>
<!-- dep_check.use_cases.draw_graph -->
<g id="node5" class="node"><title>dep_check.use_cases.draw_graph</title>
<polygon fill="white" stroke="black" points="1032,-252 793,-252 793,-216 1032,-216 1032,-252"/>
<text text-anchor="middle" x="912.5" y="-230.3" font-family="Arial" font-size="14.00">dep_check.use_cases.draw_graph</text>
</g>
<!-- dep_check.main&#45;&gt;dep_check.use_cases.draw_graph -->
<g id="edge4" class="edge"><title>dep_check.main&#45;&gt;dep_check.use_cases.draw_graph</title>
<path fill="none" stroke="black" d="M567.176,-359.989C596.191,-349.621 633.996,-336.084 667.5,-324 732.153,-300.681 806.324,-273.706 855.964,-255.62"/>
<polygon fill="black" stroke="black" points="857.358,-258.838 865.555,-252.126 854.961,-252.261 857.358,-258.838"/>
</g>
<!-- dep_check.infra.file_system -->
<g id="node6" class="node"><title>dep_check.infra.file_system</title>
<polygon fill="white" stroke="black" points="1282.5,-108 1088.5,-108 1088.5,-72 1282.5,-72 1282.5,-108"/>
<text text-anchor="middle" x="1185.5" y="-86.3" font-family="Arial" font-size="14.00">dep_check.infra.file_system</text>
</g>
<!-- dep_check.main&#45;&gt;dep_check.infra.file_system -->
<g id="edge5" class="edge"><title>dep_check.main&#45;&gt;dep_check.infra.file_system</title>
<path fill="none" stroke="black" d="M580.239,-376.819C687.754,-373.725 914.792,-354.46 1069.5,-252 1120.56,-218.181 1156.65,-153.685 1173.93,-117.432"/>
<polygon fill="black" stroke="black" points="1177.27,-118.549 1178.31,-108.005 1170.92,-115.604 1177.27,-118.549"/>
</g>
<!-- dep_check.use_cases.app_configuration -->
<g id="node7" class="node"><title>dep_check.use_cases.app_configuration</title>
<polygon fill="white" stroke="black" points="647.5,-180 369.5,-180 369.5,-144 647.5,-144 647.5,-180"/>
<text text-anchor="middle" x="508.5" y="-158.3" font-family="Arial" font-size="14.00">dep_check.use_cases.app_configuration</text>
</g>
<!-- dep_check.main&#45;&gt;dep_check.use_cases.app_configuration -->
<g id="edge6" class="edge"><title>dep_check.main&#45;&gt;dep_check.use_cases.app_configuration</title>
<path fill="none" stroke="black" d="M507.613,-359.725C501.487,-349.765 494.655,-336.727 491.5,-324 479.95,-277.41 484.081,-263.423 491.5,-216 492.859,-207.312 495.4,-198.104 498.111,-189.843"/>
<polygon fill="black" stroke="black" points="501.439,-190.93 501.434,-180.335 494.831,-188.62 501.439,-190.93"/>
</g>
<!-- dep_check.use_cases.interfaces -->
<g id="node8" class="node"><title>dep_check.use_cases.interfaces</title>
<polygon fill="white" stroke="black" points="483,-108 256,-108 256,-72 483,-72 483,-108"/>
<text text-anchor="middle" x="369.5" y="-86.3" font-family="Arial" font-size="14.00">dep_check.use_cases.interfaces</text>
</g>
<!-- dep_check.main&#45;&gt;dep_check.use_cases.interfaces -->
<g id="edge7" class="edge"><title>dep_check.main&#45;&gt;dep_check.use_cases.interfaces</title>
<path fill="none" stroke="black" d="M458.836,-372.642C384.303,-363.659 260.717,-336.164 203.5,-252 164.265,-194.286 254.847,-140.719 317.041,-112.277"/>
<polygon fill="black" stroke="black" points="318.677,-115.379 326.374,-108.098 315.817,-108.99 318.677,-115.379"/>
</g>
<!-- dep_check.infra.io -->
<g id="node9" class="node"><title>dep_check.infra.io</title>
<polygon fill="white" stroke="black" points="634,-324 501,-324 501,-288 634,-288 634,-324"/>
<text text-anchor="middle" x="567.5" y="-302.3" font-family="Arial" font-size="14.00">dep_check.infra.io</text>
</g>
<!-- dep_check.main&#45;&gt;dep_check.infra.io -->
<g id="edge8" class="edge"><title>dep_check.main&#45;&gt;dep_check.infra.io</title>
<path fill="none" stroke="black" d="M531.365,-359.697C537.003,-351.474 543.854,-341.483 550.069,-332.421"/>
<polygon fill="black" stroke="black" points="553.003,-334.331 555.771,-324.104 547.229,-330.372 553.003,-334.331"/>
</g>
<!-- dep_check.use_cases.check&#45;&gt;dep_check.use_cases.app_configuration -->
<g id="edge22" class="edge"><title>dep_check.use_cases.check&#45;&gt;dep_check.use_cases.app_configuration</title>
<path fill="none" stroke="black" d="M633.136,-215.876C610.48,-206.264 582.027,-194.193 558.03,-184.013"/>
<polygon fill="black" stroke="black" points="559.305,-180.752 548.732,-180.068 556.571,-187.196 559.305,-180.752"/>
</g>
<!-- dep_check.use_cases.check&#45;&gt;dep_check.use_cases.interfaces -->
<g id="edge23" class="edge"><title>dep_check.use_cases.check&#45;&gt;dep_check.use_cases.interfaces</title>
<path fill="none" stroke="black" d="M675.455,-215.999C676.74,-195.913 675.467,-162.852 656.5,-144 633.213,-120.855 559.952,-107.561 493.282,-100.076"/>
<polygon fill="black" stroke="black" points="493.394,-96.5674 483.074,-98.9684 492.639,-103.527 493.394,-96.5674"/>
</g>
<!-- dep_check.dependency_finder -->
<g id="node10" class="node"><title>dep_check.dependency_finder</title>
<polygon fill="white" stroke="black" points="955.5,-180 741.5,-180 741.5,-144 955.5,-144 955.5,-180"/>
<text text-anchor="middle" x="848.5" y="-158.3" font-family="Arial" font-size="14.00">dep_check.dependency_finder</text>
</g>
<!-- dep_check.use_cases.check&#45;&gt;dep_check.dependency_finder -->
<g id="edge24" class="edge"><title>dep_check.use_cases.check&#45;&gt;dep_check.dependency_finder</title>
<path fill="none" stroke="black" d="M716.31,-215.876C740.446,-206.222 770.784,-194.087 796.306,-183.878"/>
<polygon fill="black" stroke="black" points="797.844,-187.032 805.829,-180.068 795.245,-180.533 797.844,-187.032"/>
</g>
<!-- dep_check.models -->
<g id="node11" class="node"><title>dep_check.models</title>
<polygon fill="white" stroke="black" points="917.5,-36 779.5,-36 779.5,-0 917.5,-0 917.5,-36"/>
<text text-anchor="middle" x="848.5" y="-14.3" font-family="Arial" font-size="14.00">dep_check.models</text>
</g>
<!-- dep_check.use_cases.check&#45;&gt;dep_check.models -->
<g id="edge21" class="edge"><title>dep_check.use_cases.check&#45;&gt;dep_check.models</title>
<path fill="none" stroke="black" d="M774.578,-216.134C857.349,-202.084 961.344,-183.783 964.5,-180 1003.77,-132.933 932.418,-73.5194 885.244,-41.6573"/>
<polygon fill="black" stroke="black" points="887.021,-38.636 876.749,-36.0377 883.159,-44.4742 887.021,-38.636"/>
</g>
<!-- dep_check.checker -->
<g id="node12" class="node"><title>dep_check.checker</title>
<polygon fill="white" stroke="black" points="802,-108 661,-108 661,-72 802,-72 802,-108"/>
<text text-anchor="middle" x="731.5" y="-86.3" font-family="Arial" font-size="14.00">dep_check.checker</text>
</g>
<!-- dep_check.use_cases.check&#45;&gt;dep_check.checker -->
<g id="edge20" class="edge"><title>dep_check.use_cases.check&#45;&gt;dep_check.checker</title>
<path fill="none" stroke="black" d="M680.496,-215.871C690.468,-191.457 708.861,-146.426 720.621,-117.635"/>
<polygon fill="black" stroke="black" points="723.938,-118.77 724.479,-108.189 717.458,-116.123 723.938,-118.77"/>
</g>
<!-- dep_check.use_cases.build&#45;&gt;dep_check.use_cases.app_configuration -->
<g id="edge16" class="edge"><title>dep_check.use_cases.build&#45;&gt;dep_check.use_cases.app_configuration</title>
<path fill="none" stroke="black" d="M357.926,-215.966C385.731,-206.185 420.836,-193.836 450.154,-183.524"/>
<polygon fill="black" stroke="black" points="451.584,-186.731 459.856,-180.111 449.262,-180.127 451.584,-186.731"/>
</g>
<!-- dep_check.use_cases.build&#45;&gt;dep_check.use_cases.interfaces -->
<g id="edge18" class="edge"><title>dep_check.use_cases.build&#45;&gt;dep_check.use_cases.interfaces</title>
<path fill="none" stroke="black" d="M310.583,-215.863C312.285,-197.378 316.609,-167.447 327.5,-144 332.1,-134.098 338.9,-124.395 345.696,-116.055"/>
<polygon fill="black" stroke="black" points="348.565,-118.084 352.407,-108.211 343.247,-113.533 348.565,-118.084"/>
</g>
<!-- dep_check.use_cases.build&#45;&gt;dep_check.dependency_finder -->
<g id="edge15" class="edge"><title>dep_check.use_cases.build&#45;&gt;dep_check.dependency_finder</title>
<path fill="none" stroke="black" d="M406.797,-220.364C497.878,-208.535 634.113,-190.842 731.174,-178.237"/>
<polygon fill="black" stroke="black" points="731.862,-181.677 741.328,-176.918 730.961,-174.736 731.862,-181.677"/>
</g>
<!-- dep_check.use_cases.build&#45;&gt;dep_check.models -->
<g id="edge17" class="edge"><title>dep_check.use_cases.build&#45;&gt;dep_check.models</title>
<path fill="none" stroke="black" d="M292.358,-215.812C262.476,-183.812 207.578,-114.499 246.5,-72 281.113,-34.206 613.563,-23.2295 769.055,-20.1504"/>
<polygon fill="black" stroke="black" points="769.556,-23.6415 779.487,-19.9504 769.422,-16.6428 769.556,-23.6415"/>
</g>
<!-- dep_check.infra.std_lib_filter&#45;&gt;dep_check.use_cases.interfaces -->
<g id="edge26" class="edge"><title>dep_check.infra.std_lib_filter&#45;&gt;dep_check.use_cases.interfaces</title>
<path fill="none" stroke="black" d="M165.204,-143.966C203.995,-133.909 253.259,-121.136 293.691,-110.654"/>
<polygon fill="black" stroke="black" points="294.7,-114.008 303.501,-108.111 292.943,-107.233 294.7,-114.008"/>
</g>
<!-- dep_check.infra.std_lib_filter&#45;&gt;dep_check.models -->
<g id="edge25" class="edge"><title>dep_check.infra.std_lib_filter&#45;&gt;dep_check.models</title>
<path fill="none" stroke="black" d="M114.924,-143.993C135.209,-122.911 173.05,-87.8321 213.5,-72 312.656,-33.1907 621.755,-22.7789 768.986,-20.0016"/>
<polygon fill="black" stroke="black" points="769.367,-23.4953 779.302,-19.8145 769.24,-16.4965 769.367,-23.4953"/>
</g>
<!-- dep_check.use_cases.draw_graph&#45;&gt;dep_check.use_cases.app_configuration -->
<g id="edge13" class="edge"><title>dep_check.use_cases.draw_graph&#45;&gt;dep_check.use_cases.app_configuration</title>
<path fill="none" stroke="black" d="M814.187,-215.966C754.561,-205.634 678.398,-192.438 617.012,-181.802"/>
<polygon fill="black" stroke="black" points="617.354,-178.309 606.903,-180.05 616.159,-185.206 617.354,-178.309"/>
</g>
<!-- dep_check.use_cases.draw_graph&#45;&gt;dep_check.dependency_finder -->
<g id="edge12" class="edge"><title>dep_check.use_cases.draw_graph&#45;&gt;dep_check.dependency_finder</title>
<path fill="none" stroke="black" d="M896.68,-215.697C888.93,-207.22 879.461,-196.864 870.976,-187.583"/>
<polygon fill="black" stroke="black" points="873.469,-185.123 864.138,-180.104 868.303,-189.846 873.469,-185.123"/>
</g>
<!-- dep_check.use_cases.draw_graph&#45;&gt;dep_check.models -->
<g id="edge14" class="edge"><title>dep_check.use_cases.draw_graph&#45;&gt;dep_check.models</title>
<path fill="none" stroke="black" d="M957.531,-215.86C973.05,-207.527 988.724,-195.814 997.5,-180 1020.79,-138.029 1025.18,-111.218 997.5,-72 981.286,-49.024 954.196,-35.9491 927.528,-28.5305"/>
<polygon fill="black" stroke="black" points="928.297,-25.1146 917.743,-26.0453 926.574,-31.8993 928.297,-25.1146"/>
</g>
<!-- dep_check.infra.file_system&#45;&gt;dep_check.models -->
<g id="edge27" class="edge"><title>dep_check.infra.file_system&#45;&gt;dep_check.models</title>
<path fill="none" stroke="black" d="M1103.49,-71.9656C1050.05,-60.8641 980.672,-46.4541 927.781,-35.4678"/>
<polygon fill="black" stroke="black" points="928.271,-31.995 917.768,-33.388 926.847,-38.8487 928.271,-31.995"/>
</g>
<!-- dep_check.use_cases.app_configuration&#45;&gt;dep_check.use_cases.interfaces -->
<g id="edge11" class="edge"><title>dep_check.use_cases.app_configuration&#45;&gt;dep_check.use_cases.interfaces</title>
<path fill="none" stroke="black" d="M474.497,-143.876C455.902,-134.512 432.673,-122.814 412.794,-112.803"/>
<polygon fill="black" stroke="black" points="414.14,-109.562 403.634,-108.19 410.991,-115.814 414.14,-109.562"/>
</g>
<!-- dep_check.use_cases.interfaces&#45;&gt;dep_check.models -->
<g id="edge19" class="edge"><title>dep_check.use_cases.interfaces&#45;&gt;dep_check.models</title>
<path fill="none" stroke="black" d="M483.016,-72.411C571.051,-59.5458 690.834,-42.041 768.896,-30.6332"/>
<polygon fill="black" stroke="black" points="769.762,-34.0438 779.151,-29.1345 768.75,-27.1174 769.762,-34.0438"/>
</g>
<!-- dep_check.infra.io&#45;&gt;dep_check.use_cases.check -->
<g id="edge28" class="edge"><title>dep_check.infra.io&#45;&gt;dep_check.use_cases.check</title>
<path fill="none" stroke="black" d="M593.431,-287.876C607.162,-278.808 624.206,-267.552 639.036,-257.759"/>
<polygon fill="black" stroke="black" points="641.054,-260.621 647.47,-252.19 637.196,-254.78 641.054,-260.621"/>
</g>
<!-- dep_check.infra.io&#45;&gt;dep_check.use_cases.build -->
<g id="edge30" class="edge"><title>dep_check.infra.io&#45;&gt;dep_check.use_cases.build</title>
<path fill="none" stroke="black" d="M504.716,-287.966C467.884,-277.972 421.171,-265.298 382.676,-254.854"/>
<polygon fill="black" stroke="black" points="383.133,-251.352 372.566,-252.111 381.3,-258.107 383.133,-251.352"/>
</g>
<!-- dep_check.infra.io&#45;&gt;dep_check.use_cases.draw_graph -->
<g id="edge31" class="edge"><title>dep_check.infra.io&#45;&gt;dep_check.use_cases.draw_graph</title>
<path fill="none" stroke="black" d="M634.019,-291.503C686.402,-280.875 760.073,-265.927 818.485,-254.076"/>
<polygon fill="black" stroke="black" points="819.358,-257.47 828.462,-252.051 817.966,-250.61 819.358,-257.47"/>
</g>
<!-- dep_check.infra.io&#45;&gt;dep_check.use_cases.interfaces -->
<g id="edge32" class="edge"><title>dep_check.infra.io&#45;&gt;dep_check.use_cases.interfaces</title>
<path fill="none" stroke="black" d="M538.27,-287.85C481.803,-254.65 363.015,-184.456 360.5,-180 349.874,-161.17 353.467,-136.5 358.956,-117.909"/>
<polygon fill="black" stroke="black" points="362.323,-118.876 362.123,-108.283 355.673,-116.689 362.323,-118.876"/>
</g>
<!-- dep_check.infra.io&#45;&gt;dep_check.models -->
<g id="edge29" class="edge"><title>dep_check.infra.io&#45;&gt;dep_check.models</title>
<path fill="none" stroke="black" d="M634.028,-302.372C757.916,-296.791 1013.89,-281.759 1040.5,-252 1070.82,-218.091 1114.08,-181.996 1020.5,-72 997.563,-45.0404 961.246,-31.5623 927.882,-24.9135"/>
<polygon fill="black" stroke="black" points="928.104,-21.3969 917.641,-23.0619 926.858,-28.2852 928.104,-21.3969"/>
</g>
<!-- yaml -->
<g id="node13" class="node"><title>yaml</title>
<polygon fill="white" stroke="black" points="554.5,-252 500.5,-252 500.5,-216 554.5,-216 554.5,-252"/>
<text text-anchor="middle" x="527.5" y="-230.3" font-family="Arial" font-size="14.00">yaml</text>
</g>
<!-- dep_check.infra.io&#45;&gt;yaml -->
<g id="edge33" class="edge"><title>dep_check.infra.io&#45;&gt;yaml</title>
<path fill="none" stroke="black" d="M557.612,-287.697C553.011,-279.644 547.44,-269.894 542.347,-260.982"/>
<polygon fill="black" stroke="black" points="545.274,-259.05 537.274,-252.104 539.196,-262.523 545.274,-259.05"/>
</g>
<!-- dep_check.dependency_finder&#45;&gt;dep_check.models -->
<g id="edge9" class="edge"><title>dep_check.dependency_finder&#45;&gt;dep_check.models</title>
<path fill="none" stroke="black" d="M848.5,-143.871C848.5,-119.67 848.5,-75.2108 848.5,-46.3932"/>
<polygon fill="black" stroke="black" points="852,-46.1892 848.5,-36.1893 845,-46.1893 852,-46.1892"/>
</g>
<!-- dep_check.checker&#45;&gt;dep_check.models -->
<g id="edge10" class="edge"><title>dep_check.checker&#45;&gt;dep_check.models</title>
<path fill="none" stroke="black" d="M760.121,-71.8761C775.419,-62.7236 794.443,-51.3417 810.918,-41.485"/>
<polygon fill="black" stroke="black" points="812.984,-44.3275 819.769,-36.1898 809.39,-38.3205 812.984,-44.3275"/>
</g>
</g>
</svg>
