<?xml version="1.0" encoding="UTF-8" standalone="no"?>
<!DOCTYPE svg PUBLIC "-//W3C//DTD SVG 1.1//EN"
 "http://www.w3.org/Graphics/SVG/1.1/DTD/svg11.dtd">
<!-- Generated by graphviz version 2.38.0 (20140413.2041)
 -->
<!-- Title: G Pages: 1 -->
<svg width="336pt" height="116pt"
 viewBox="0.00 0.00 335.50 116.00" xmlns="http://www.w3.org/2000/svg" xmlns:xlink="http://www.w3.org/1999/xlink">
<g id="graph0" class="graph" transform="scale(1 1) rotate(0) translate(4 112)">
<title>G</title>
<!-- simple_module -->
<g id="node1" class="node"><title>simple_module</title>
<polygon fill="white" stroke="black" points="217,-108 103,-108 103,-72 217,-72 217,-108"/>
<text text-anchor="middle" x="160" y="-86.3" font-family="Arial" font-size="14.00">simple_module</text>
</g>
<!-- module -->
<g id="node2" class="node"><title>module</title>
<polygon fill="white" stroke="black" points="64,-36 0,-36 0,-0 64,-0 64,-36"/>
<text text-anchor="middle" x="32" y="-14.3" font-family="Arial" font-size="14.00">module</text>
</g>
<!-- simple_module&#45;&gt;module -->
<g id="edge1" class="edge"><title>simple_module&#45;&gt;module</title>
<path fill="none" stroke="black" d="M128.688,-71.8761C111.797,-62.6388 90.7534,-51.1308 72.6155,-41.2116"/>
<polygon fill="black" stroke="black" points="73.8858,-37.9171 63.4327,-36.1898 70.5271,-44.0587 73.8858,-37.9171"/>
</g>
<!-- module.inside.module -->
<g id="node3" class="node"><title>module.inside.module</title>
<polygon fill="white" stroke="black" points="238,-36 82,-36 82,-0 238,-0 238,-36"/>
<text text-anchor="middle" x="160" y="-14.3" font-family="Arial" font-size="14.00">module.inside.module</text>
</g>
<!-- simple_module&#45;&gt;module.inside.module -->
<g id="edge2" class="edge"><title>simple_module&#45;&gt;module.inside.module</title>
<path fill="none" stroke="black" d="M160,-71.6966C160,-63.9827 160,-54.7125 160,-46.1124"/>
<polygon fill="black" stroke="black" points="163.5,-46.1043 160,-36.1043 156.5,-46.1044 163.5,-46.1043"/>
</g>
<!-- amodule -->
<g id="node4" class="node"><title>amodule</title>
<polygon fill="white" stroke="black" points="327.5,-36 256.5,-36 256.5,-0 327.5,-0 327.5,-36"/>
<text text-anchor="middle" x="292" y="-14.3" font-family="Arial" font-size="14.00">amodule</text>
</g>
<!-- simple_module&#45;&gt;amodule -->
<g id="edge3" class="edge"><title>simple_module&#45;&gt;amodule</title>
<path fill="none" stroke="black" d="M192.291,-71.8761C209.869,-62.5541 231.809,-50.9194 250.629,-40.939"/>
<polygon fill="black" stroke="black" points="252.39,-43.967 259.585,-36.1898 249.111,-37.7827 252.39,-43.967"/>
</g>
</g>
</svg>
