<?xml version="1.0" encoding="UTF-8" standalone="no"?>
<!DOCTYPE svg PUBLIC "-//W3C//DTD SVG 1.1//EN"
 "http://www.w3.org/Graphics/SVG/1.1/DTD/svg11.dtd">
<!-- Generated by graphviz version 2.38.0 (20140413.2041)
 -->
<!-- Title: G Pages: 1 -->
<svg width="1640pt" height="404pt"
 viewBox="0.00 0.00 1639.50 404.00" xmlns="http://www.w3.org/2000/svg" xmlns:xlink="http://www.w3.org/1999/xlink">
<g id="graph0" class="graph" transform="scale(1 1) rotate(0) translate(4 400)">
<title>G</title>
<!-- dep_check.main -->
<g id="node1" class="node"><title>dep_check.main</title>
<polygon fill="white" stroke="black" points="975.5,-396 854.5,-396 854.5,-360 975.5,-360 975.5,-396"/>
<text text-anchor="middle" x="915" y="-374.3" font-family="Arial" font-size="14.00">dep_check.main</text>
</g>
<!-- dep_check.use_cases.app_configuration -->
<g id="node2" class="node"><title>dep_check.use_cases.app_configuration</title>
<polygon fill="white" stroke="black" points="1251,-180 973,-180 973,-144 1251,-144 1251,-180"/>
<text text-anchor="middle" x="1112" y="-158.3" font-family="Arial" font-size="14.00">dep_check.use_cases.app_configuration</text>
</g>
<!-- dep_check.main&#45;&gt;dep_check.use_cases.app_configuration -->
<g id="edge1" class="edge"><title>dep_check.main&#45;&gt;dep_check.use_cases.app_configuration</title>
<path fill="none" stroke="black" d="M975.762,-371.467C1047.55,-361.307 1164.04,-332.633 1218,-252 1226.9,-238.703 1226.41,-229.61 1218,-216 1209.66,-202.504 1196.73,-192.33 1182.72,-184.701"/>
<polygon fill="black" stroke="black" points="1183.92,-181.384 1173.41,-180.046 1180.79,-187.646 1183.92,-181.384"/>
</g>
<!-- dep_check.infra.python_parser -->
<g id="node3" class="node"><title>dep_check.infra.python_parser</title>
<polygon fill="white" stroke="black" points="277,-252 65,-252 65,-216 277,-216 277,-252"/>
<text text-anchor="middle" x="171" y="-230.3" font-family="Arial" font-size="14.00">dep_check.infra.python_parser</text>
</g>
<!-- dep_check.main&#45;&gt;dep_check.infra.python_parser -->
<g id="edge2" class="edge"><title>dep_check.main&#45;&gt;dep_check.infra.python_parser</title>
<path fill="none" stroke="black" d="M854.472,-374.369C763.249,-369.487 585.505,-356.398 438,-324 361.398,-307.175 275.891,-276.461 222.76,-255.889"/>
<polygon fill="black" stroke="black" points="223.813,-252.543 213.225,-252.171 221.27,-259.065 223.813,-252.543"/>
</g>
<!-- dep_check.use_cases.build -->
<g id="node4" class="node"><title>dep_check.use_cases.build</title>
<polygon fill="white" stroke="black" points="1209,-252 1015,-252 1015,-216 1209,-216 1209,-252"/>
<text text-anchor="middle" x="1112" y="-230.3" font-family="Arial" font-size="14.00">dep_check.use_cases.build</text>
</g>
<!-- dep_check.main&#45;&gt;dep_check.use_cases.build -->
<g id="edge3" class="edge"><title>dep_check.main&#45;&gt;dep_check.use_cases.build</title>
<path fill="none" stroke="black" d="M939.385,-359.907C954.086,-349.567 973.164,-336.089 990,-324 1020.86,-301.841 1055.88,-276.25 1080.45,-258.213"/>
<polygon fill="black" stroke="black" points="1082.7,-260.907 1088.69,-252.167 1078.56,-255.265 1082.7,-260.907"/>
</g>
<!-- dep_check.use_cases.interfaces -->
<g id="node5" class="node"><title>dep_check.use_cases.interfaces</title>
<polygon fill="white" stroke="black" points="1225.5,-108 998.5,-108 998.5,-72 1225.5,-72 1225.5,-108"/>
<text text-anchor="middle" x="1112" y="-86.3" font-family="Arial" font-size="14.00">dep_check.use_cases.interfaces</text>
</g>
<!-- dep_check.main&#45;&gt;dep_check.use_cases.interfaces -->
<g id="edge4" class="edge"><title>dep_check.main&#45;&gt;dep_check.use_cases.interfaces</title>
<path fill="none" stroke="black" d="M975.579,-376.135C1031.52,-372.818 1115.08,-361.283 1177,-324 1212.44,-302.66 1216.02,-288.225 1236,-252 1259.75,-208.946 1288.31,-184.205 1260,-144 1250.21,-130.102 1236.43,-119.83 1221.18,-112.241"/>
<polygon fill="black" stroke="black" points="1222.59,-109.041 1212.04,-108.076 1219.69,-115.41 1222.59,-109.041"/>
</g>
<!-- dep_check.infra.go_parser -->
<g id="node6" class="node"><title>dep_check.infra.go_parser</title>
<polygon fill="white" stroke="black" points="481.5,-252 294.5,-252 294.5,-216 481.5,-216 481.5,-252"/>
<text text-anchor="middle" x="388" y="-230.3" font-family="Arial" font-size="14.00">dep_check.infra.go_parser</text>
</g>
<!-- dep_check.main&#45;&gt;dep_check.infra.go_parser -->
<g id="edge5" class="edge"><title>dep_check.main&#45;&gt;dep_check.infra.go_parser</title>
<path fill="none" stroke="black" d="M854.454,-373.541C754.127,-367.118 558.2,-351.444 495,-324 461.198,-309.322 429.694,-280.544 409.747,-259.676"/>
<polygon fill="black" stroke="black" points="412.069,-257.035 402.688,-252.112 406.952,-261.811 412.069,-257.035"/>
</g>
<!-- dep_check.infra.file_system -->
<g id="node7" class="node"><title>dep_check.infra.file_system</title>
<polygon fill="white" stroke="black" points="194,-324 1.42109e-14,-324 1.42109e-14,-288 194,-288 194,-324"/>
<text text-anchor="middle" x="97" y="-302.3" font-family="Arial" font-size="14.00">dep_check.infra.file_system</text>
</g>
<!-- dep_check.main&#45;&gt;dep_check.infra.file_system -->
<g id="edge6" class="edge"><title>dep_check.main&#45;&gt;dep_check.infra.file_system</title>
<path fill="none" stroke="black" d="M854.313,-372.382C739.69,-363.581 483.505,-343.537 268,-324 247.352,-322.128 225.313,-320.02 204.16,-317.941"/>
<polygon fill="black" stroke="black" points="204.481,-314.456 194.185,-316.957 203.793,-321.422 204.481,-314.456"/>
</g>
<!-- dep_check.use_cases.draw_graph -->
<g id="node8" class="node"><title>dep_check.use_cases.draw_graph</title>
<polygon fill="white" stroke="black" points="776.5,-252 537.5,-252 537.5,-216 776.5,-216 776.5,-252"/>
<text text-anchor="middle" x="657" y="-230.3" font-family="Arial" font-size="14.00">dep_check.use_cases.draw_graph</text>
</g>
<!-- dep_check.main&#45;&gt;dep_check.use_cases.draw_graph -->
<g id="edge7" class="edge"><title>dep_check.main&#45;&gt;dep_check.use_cases.draw_graph</title>
<path fill="none" stroke="black" d="M883.879,-359.871C837.099,-334.124 748.66,-285.448 697.102,-257.072"/>
<polygon fill="black" stroke="black" points="698.68,-253.945 688.231,-252.189 695.304,-260.077 698.68,-253.945"/>
</g>
<!-- dep_check.use_cases.check -->
<g id="node9" class="node"><title>dep_check.use_cases.check</title>
<polygon fill="white" stroke="black" points="1505,-252 1303,-252 1303,-216 1505,-216 1505,-252"/>
<text text-anchor="middle" x="1404" y="-230.3" font-family="Arial" font-size="14.00">dep_check.use_cases.check</text>
</g>
<!-- dep_check.main&#45;&gt;dep_check.use_cases.check -->
<g id="edge8" class="edge"><title>dep_check.main&#45;&gt;dep_check.use_cases.check</title>
<path fill="none" stroke="black" d="M975.815,-377.804C1051.98,-376.731 1185.09,-367.894 1289,-324 1324.63,-308.95 1358.79,-280.044 1380.49,-259.253"/>
<polygon fill="black" stroke="black" points="1383.2,-261.497 1387.9,-252 1378.31,-256.494 1383.2,-261.497"/>
</g>
<!-- dep_check.dependency_finder -->
<g id="node10" class="node"><title>dep_check.dependency_finder</title>
<polygon fill="white" stroke="black" points="739,-180 525,-180 525,-144 739,-144 739,-180"/>
<text text-anchor="middle" x="632" y="-158.3" font-family="Arial" font-size="14.00">dep_check.dependency_finder</text>
</g>
<!-- dep_check.main&#45;&gt;dep_check.dependency_finder -->
<g id="edge9" class="edge"><title>dep_check.main&#45;&gt;dep_check.dependency_finder</title>
<path fill="none" stroke="black" d="M854.279,-366.285C755.44,-347.47 566.85,-305.374 528,-252 518.584,-239.064 519.641,-229.643 528,-216 536.251,-202.534 549.116,-192.356 563.021,-184.711"/>
<polygon fill="black" stroke="black" points="564.92,-187.673 572.271,-180.043 561.767,-181.423 564.92,-187.673"/>
</g>
<!-- dep_check.infra.std_lib_filter -->
<g id="node11" class="node"><title>dep_check.infra.std_lib_filter</title>
<polygon fill="white" stroke="black" points="1631.5,-180 1432.5,-180 1432.5,-144 1631.5,-144 1631.5,-180"/>
<text text-anchor="middle" x="1532" y="-158.3" font-family="Arial" font-size="14.00">dep_check.infra.std_lib_filter</text>
</g>
<!-- dep_check.main&#45;&gt;dep_check.infra.std_lib_filter -->
<g id="edge10" class="edge"><title>dep_check.main&#45;&gt;dep_check.infra.std_lib_filter</title>
<path fill="none" stroke="black" d="M975.621,-374.053C1057.58,-368.996 1207.78,-355.926 1332,-324 1416.25,-302.347 1458.17,-318.71 1514,-252 1528.27,-234.943 1532.28,-209.653 1533,-190.386"/>
<polygon fill="black" stroke="black" points="1536.51,-190.154 1533.11,-180.12 1529.51,-190.084 1536.51,-190.154"/>
</g>
<!-- dep_check.infra.io -->
<g id="node12" class="node"><title>dep_check.infra.io</title>
<polygon fill="white" stroke="black" points="981.5,-324 848.5,-324 848.5,-288 981.5,-288 981.5,-324"/>
<text text-anchor="middle" x="915" y="-302.3" font-family="Arial" font-size="14.00">dep_check.infra.io</text>
</g>
<!-- dep_check.main&#45;&gt;dep_check.infra.io -->
<g id="edge11" class="edge"><title>dep_check.main&#45;&gt;dep_check.infra.io</title>
<path fill="none" stroke="black" d="M915,-359.697C915,-351.983 915,-342.712 915,-334.112"/>
<polygon fill="black" stroke="black" points="918.5,-334.104 915,-324.104 911.5,-334.104 918.5,-334.104"/>
</g>
<!-- dep_check.use_cases.app_configuration&#45;&gt;dep_check.use_cases.interfaces -->
<g id="edge14" class="edge"><title>dep_check.use_cases.app_configuration&#45;&gt;dep_check.use_cases.interfaces</title>
<path fill="none" stroke="black" d="M1112,-143.697C1112,-135.983 1112,-126.712 1112,-118.112"/>
<polygon fill="black" stroke="black" points="1115.5,-118.104 1112,-108.104 1108.5,-118.104 1115.5,-118.104"/>
</g>
<!-- dep_check.infra.python_parser&#45;&gt;dep_check.dependency_finder -->
<g id="edge30" class="edge"><title>dep_check.infra.python_parser&#45;&gt;dep_check.dependency_finder</title>
<path fill="none" stroke="black" d="M277.052,-216.897C348.024,-206.12 441.476,-191.93 514.675,-180.815"/>
<polygon fill="black" stroke="black" points="515.503,-184.229 524.865,-179.268 514.452,-177.309 515.503,-184.229"/>
</g>
<!-- dep_check.models -->
<g id="node13" class="node"><title>dep_check.models</title>
<polygon fill="white" stroke="black" points="874,-36 736,-36 736,-0 874,-0 874,-36"/>
<text text-anchor="middle" x="805" y="-14.3" font-family="Arial" font-size="14.00">dep_check.models</text>
</g>
<!-- dep_check.infra.python_parser&#45;&gt;dep_check.models -->
<g id="edge31" class="edge"><title>dep_check.infra.python_parser&#45;&gt;dep_check.models</title>
<path fill="none" stroke="black" d="M209.658,-215.878C282.029,-184.288 443.365,-116.05 584,-72 630.361,-57.4789 683.25,-44.6655 725.663,-35.2764"/>
<polygon fill="black" stroke="black" points="726.635,-38.6465 735.652,-33.0852 725.135,-31.8091 726.635,-38.6465"/>
</g>
<!-- dep_check.use_cases.build&#45;&gt;dep_check.use_cases.app_configuration -->
<g id="edge18" class="edge"><title>dep_check.use_cases.build&#45;&gt;dep_check.use_cases.app_configuration</title>
<path fill="none" stroke="black" d="M1112,-215.697C1112,-207.983 1112,-198.712 1112,-190.112"/>
<polygon fill="black" stroke="black" points="1115.5,-190.104 1112,-180.104 1108.5,-190.104 1115.5,-190.104"/>
</g>
<!-- dep_check.use_cases.build&#45;&gt;dep_check.use_cases.interfaces -->
<g id="edge19" class="edge"><title>dep_check.use_cases.build&#45;&gt;dep_check.use_cases.interfaces</title>
<path fill="none" stroke="black" d="M1014.62,-217.008C994.782,-209.126 976.255,-197.406 964,-180 954.789,-166.917 954.789,-157.083 964,-144 973.785,-130.102 987.568,-119.83 1002.82,-112.241"/>
<polygon fill="black" stroke="black" points="1004.31,-115.41 1011.96,-108.076 1001.41,-109.041 1004.31,-115.41"/>
</g>
<!-- dep_check.use_cases.build&#45;&gt;dep_check.dependency_finder -->
<g id="edge21" class="edge"><title>dep_check.use_cases.build&#45;&gt;dep_check.dependency_finder</title>
<path fill="none" stroke="black" d="M1014.97,-217.365C1011.94,-216.901 1008.95,-216.445 1006,-216 920.226,-203.045 823.238,-189.328 749.526,-179.095"/>
<polygon fill="black" stroke="black" points="749.669,-175.581 739.283,-177.674 748.707,-182.515 749.669,-175.581"/>
</g>
<!-- dep_check.use_cases.build&#45;&gt;dep_check.models -->
<g id="edge20" class="edge"><title>dep_check.use_cases.build&#45;&gt;dep_check.models</title>
<path fill="none" stroke="black" d="M1036.17,-215.93C1008.9,-207.689 978.784,-196.021 954,-180 897.094,-143.214 847.316,-79.7922 822.245,-44.5279"/>
<polygon fill="black" stroke="black" points="825.018,-42.3856 816.415,-36.2025 819.284,-46.4012 825.018,-42.3856"/>
</g>
<!-- dep_check.use_cases.interfaces&#45;&gt;dep_check.models -->
<g id="edge22" class="edge"><title>dep_check.use_cases.interfaces&#45;&gt;dep_check.models</title>
<path fill="none" stroke="black" d="M1037.29,-71.9656C990.896,-61.3867 931.324,-47.8035 884.125,-37.0414"/>
<polygon fill="black" stroke="black" points="884.778,-33.6006 874.25,-34.7898 883.221,-40.4254 884.778,-33.6006"/>
</g>
<!-- dep_check.infra.go_parser&#45;&gt;dep_check.dependency_finder -->
<g id="edge40" class="edge"><title>dep_check.infra.go_parser&#45;&gt;dep_check.dependency_finder</title>
<path fill="none" stroke="black" d="M447.377,-215.966C482.062,-206.015 526.013,-193.406 562.33,-182.987"/>
<polygon fill="black" stroke="black" points="563.71,-186.233 572.357,-180.111 561.779,-179.504 563.71,-186.233"/>
</g>
<!-- dep_check.infra.go_parser&#45;&gt;dep_check.models -->
<g id="edge41" class="edge"><title>dep_check.infra.go_parser&#45;&gt;dep_check.models</title>
<path fill="none" stroke="black" d="M409.781,-215.836C434.576,-196.786 476.742,-165.851 516,-144 593.484,-100.872 688.814,-62.2096 748.26,-39.671"/>
<polygon fill="black" stroke="black" points="749.722,-42.8604 757.845,-36.0587 747.253,-36.3101 749.722,-42.8604"/>
</g>
<!-- dep_check.infra.file_system&#45;&gt;dep_check.models -->
<g id="edge32" class="edge"><title>dep_check.infra.file_system&#45;&gt;dep_check.models</title>
<path fill="none" stroke="black" d="M78.9377,-287.903C61.3979,-269.186 39.6353,-238.806 56,-216 172.517,-53.6208 288.077,-120.342 482,-72 564.041,-51.5485 659.827,-36.9666 725.667,-28.3399"/>
<polygon fill="black" stroke="black" points="726.502,-31.7611 735.97,-27.0065 725.603,-24.819 726.502,-31.7611"/>
</g>
<!-- dep_check.use_cases.draw_graph&#45;&gt;dep_check.use_cases.app_configuration -->
<g id="edge15" class="edge"><title>dep_check.use_cases.draw_graph&#45;&gt;dep_check.use_cases.app_configuration</title>
<path fill="none" stroke="black" d="M767.724,-215.966C835.292,-205.57 921.717,-192.274 991.07,-181.605"/>
<polygon fill="black" stroke="black" points="991.823,-185.03 1001.17,-180.05 990.759,-178.111 991.823,-185.03"/>
</g>
<!-- dep_check.use_cases.draw_graph&#45;&gt;dep_check.dependency_finder -->
<g id="edge17" class="edge"><title>dep_check.use_cases.draw_graph&#45;&gt;dep_check.dependency_finder</title>
<path fill="none" stroke="black" d="M650.82,-215.697C648.005,-207.813 644.609,-198.304 641.481,-189.546"/>
<polygon fill="black" stroke="black" points="644.768,-188.345 638.109,-180.104 638.176,-190.699 644.768,-188.345"/>
</g>
<!-- dep_check.use_cases.draw_graph&#45;&gt;dep_check.models -->
<g id="edge16" class="edge"><title>dep_check.use_cases.draw_graph&#45;&gt;dep_check.models</title>
<path fill="none" stroke="black" d="M699.981,-215.823C716.902,-207.233 735.287,-195.346 748,-180 765.314,-159.1 787.014,-85.7616 797.972,-45.6694"/>
<polygon fill="black" stroke="black" points="801.352,-46.5784 800.58,-36.0117 794.594,-44.7535 801.352,-46.5784"/>
</g>
<!-- dep_check.use_cases.check&#45;&gt;dep_check.use_cases.app_configuration -->
<g id="edge23" class="edge"><title>dep_check.use_cases.check&#45;&gt;dep_check.use_cases.app_configuration</title>
<path fill="none" stroke="black" d="M1332.94,-215.966C1290.65,-205.826 1236.84,-192.927 1192.91,-182.396"/>
<polygon fill="black" stroke="black" points="1193.66,-178.978 1183.12,-180.05 1192.03,-185.785 1193.66,-178.978"/>
</g>
<!-- dep_check.use_cases.check&#45;&gt;dep_check.use_cases.interfaces -->
<g id="edge25" class="edge"><title>dep_check.use_cases.check&#45;&gt;dep_check.use_cases.interfaces</title>
<path fill="none" stroke="black" d="M1383.55,-215.889C1354.3,-191.517 1302.91,-149.165 1293,-144 1265.74,-129.795 1234.13,-118.88 1205.02,-110.754"/>
<polygon fill="black" stroke="black" points="1205.83,-107.345 1195.26,-108.104 1203.99,-114.101 1205.83,-107.345"/>
</g>
<!-- dep_check.use_cases.check&#45;&gt;dep_check.dependency_finder -->
<g id="edge26" class="edge"><title>dep_check.use_cases.check&#45;&gt;dep_check.dependency_finder</title>
<path fill="none" stroke="black" d="M1302.64,-223.719C1275.18,-221.208 1245.45,-218.496 1218,-216 1055.51,-201.227 867.675,-184.257 749.367,-173.582"/>
<polygon fill="black" stroke="black" points="749.476,-170.078 739.202,-172.665 748.847,-177.05 749.476,-170.078"/>
</g>
<!-- dep_check.use_cases.check&#45;&gt;dep_check.models -->
<g id="edge27" class="edge"><title>dep_check.use_cases.check&#45;&gt;dep_check.models</title>
<path fill="none" stroke="black" d="M1392.72,-215.791C1368.6,-180.74 1308.08,-101.865 1234,-72 1172.3,-47.1279 990.325,-31.2871 884.243,-23.8968"/>
<polygon fill="black" stroke="black" points="884.437,-20.402 874.221,-23.208 883.957,-27.3855 884.437,-20.402"/>
</g>
<!-- dep_check.checker -->
<g id="node14" class="node"><title>dep_check.checker</title>
<polygon fill="white" stroke="black" points="1503.5,-108 1362.5,-108 1362.5,-72 1503.5,-72 1503.5,-108"/>
<text text-anchor="middle" x="1433" y="-86.3" font-family="Arial" font-size="14.00">dep_check.checker</text>
</g>
<!-- dep_check.use_cases.check&#45;&gt;dep_check.checker -->
<g id="edge24" class="edge"><title>dep_check.use_cases.check&#45;&gt;dep_check.checker</title>
<path fill="none" stroke="black" d="M1407.5,-215.871C1412.46,-191.564 1421.6,-146.819 1427.48,-118.013"/>
<polygon fill="black" stroke="black" points="1430.92,-118.687 1429.49,-108.189 1424.06,-117.287 1430.92,-118.687"/>
</g>
<!-- dep_check.dependency_finder&#45;&gt;dep_check.models -->
<g id="edge12" class="edge"><title>dep_check.dependency_finder&#45;&gt;dep_check.models</title>
<path fill="none" stroke="black" d="M652.868,-143.871C683.651,-118.604 741.338,-71.2543 776.152,-42.6788"/>
<polygon fill="black" stroke="black" points="778.549,-45.2392 784.058,-36.1893 774.108,-39.8285 778.549,-45.2392"/>
</g>
<!-- dep_check.infra.std_lib_filter&#45;&gt;dep_check.use_cases.interfaces -->
<g id="edge28" class="edge"><title>dep_check.infra.std_lib_filter&#45;&gt;dep_check.use_cases.interfaces</title>
<path fill="none" stroke="black" d="M1432.47,-144.411C1369.95,-133.992 1289.18,-120.529 1224.36,-109.727"/>
<polygon fill="black" stroke="black" points="1224.54,-106.209 1214.1,-108.017 1223.39,-113.114 1224.54,-106.209"/>
</g>
<!-- dep_check.infra.std_lib_filter&#45;&gt;dep_check.models -->
<g id="edge29" class="edge"><title>dep_check.infra.std_lib_filter&#45;&gt;dep_check.models</title>
<path fill="none" stroke="black" d="M1533.63,-143.934C1534.53,-123.464 1532.5,-89.6991 1512,-72 1465.36,-31.7246 1059.05,-22.0285 884.322,-19.7156"/>
<polygon fill="black" stroke="black" points="884.204,-16.2139 874.16,-19.586 884.115,-23.2133 884.204,-16.2139"/>
</g>
<!-- dep_check.infra.io&#45;&gt;dep_check.use_cases.build -->
<g id="edge33" class="edge"><title>dep_check.infra.io&#45;&gt;dep_check.use_cases.build</title>
<path fill="none" stroke="black" d="M962.94,-287.966C990.465,-278.185 1025.22,-265.836 1054.24,-255.524"/>
<polygon fill="black" stroke="black" points="1055.59,-258.757 1063.85,-252.111 1053.25,-252.161 1055.59,-258.757"/>
</g>
<!-- dep_check.infra.io&#45;&gt;dep_check.use_cases.interfaces -->
<g id="edge34" class="edge"><title>dep_check.infra.io&#45;&gt;dep_check.use_cases.interfaces</title>
<path fill="none" stroke="black" d="M913.983,-287.864C913.031,-255.328 915.799,-184.269 954,-144 967.542,-129.724 985.04,-119.293 1003.44,-111.671"/>
<polygon fill="black" stroke="black" points="1004.76,-114.914 1012.82,-108.044 1002.23,-108.384 1004.76,-114.914"/>
</g>
<!-- dep_check.infra.io&#45;&gt;dep_check.use_cases.draw_graph -->
<g id="edge35" class="edge"><title>dep_check.infra.io&#45;&gt;dep_check.use_cases.draw_graph</title>
<path fill="none" stroke="black" d="M852.216,-287.966C815.384,-277.972 768.671,-265.298 730.176,-254.854"/>
<polygon fill="black" stroke="black" points="730.633,-251.352 720.066,-252.111 728.8,-258.107 730.633,-251.352"/>
</g>
<!-- dep_check.infra.io&#45;&gt;dep_check.use_cases.check -->
<g id="edge36" class="edge"><title>dep_check.infra.io&#45;&gt;dep_check.use_cases.check</title>
<path fill="none" stroke="black" d="M981.713,-295.45C1061.73,-283.996 1197.05,-264.625 1292.92,-250.901"/>
<polygon fill="black" stroke="black" points="1293.55,-254.347 1302.95,-249.465 1292.55,-247.418 1293.55,-254.347"/>
</g>
<!-- dep_check.infra.io&#45;&gt;dep_check.models -->
<g id="edge39" class="edge"><title>dep_check.infra.io&#45;&gt;dep_check.models</title>
<path fill="none" stroke="black" d="M867.099,-287.906C850.733,-279.622 834.041,-267.931 824,-252 783.345,-187.496 792.127,-92.1854 799.682,-46.0208"/>
<polygon fill="black" stroke="black" points="803.13,-46.618 801.401,-36.1653 796.235,-45.4151 803.13,-46.618"/>
</g>
<!-- jinja2 -->
<g id="node15" class="node"><title>jinja2</title>
<polygon fill="white" stroke="black" points="887,-252 833,-252 833,-216 887,-216 887,-252"/>
<text text-anchor="middle" x="860" y="-230.3" font-family="Arial" font-size="14.00">jinja2</text>
</g>
<!-- dep_check.infra.io&#45;&gt;jinja2 -->
<g id="edge37" class="edge"><title>dep_check.infra.io&#45;&gt;jinja2</title>
<path fill="none" stroke="black" d="M901.404,-287.697C894.877,-279.389 886.932,-269.277 879.753,-260.141"/>
<polygon fill="black" stroke="black" points="882.369,-257.805 873.439,-252.104 876.865,-262.13 882.369,-257.805"/>
</g>
<!-- yaml -->
<g id="node16" class="node"><title>yaml</title>
<polygon fill="white" stroke="black" points="997,-252 943,-252 943,-216 997,-216 997,-252"/>
<text text-anchor="middle" x="970" y="-230.3" font-family="Arial" font-size="14.00">yaml</text>
</g>
<!-- dep_check.infra.io&#45;&gt;yaml -->
<g id="edge38" class="edge"><title>dep_check.infra.io&#45;&gt;yaml</title>
<path fill="none" stroke="black" d="M928.596,-287.697C935.123,-279.389 943.068,-269.277 950.247,-260.141"/>
<polygon fill="black" stroke="black" points="953.135,-262.13 956.561,-252.104 947.631,-257.805 953.135,-262.13"/>
</g>
<!-- dep_check.checker&#45;&gt;dep_check.models -->
<g id="edge13" class="edge"><title>dep_check.checker&#45;&gt;dep_check.models</title>
<path fill="none" stroke="black" d="M1362.13,-74.2747C1357.36,-73.4533 1352.61,-72.6849 1348,-72 1183.94,-47.6503 990.274,-31.8148 884.255,-24.2381"/>
<polygon fill="black" stroke="black" points="884.495,-20.7465 874.272,-23.5307 884,-27.729 884.495,-20.7465"/>
</g>
</g>
</svg>
