<?xml version="1.0" encoding="UTF-8" standalone="no"?>
<!DOCTYPE svg PUBLIC "-//W3C//DTD SVG 1.1//EN"
 "http://www.w3.org/Graphics/SVG/1.1/DTD/svg11.dtd">
<!-- Generated by graphviz version 2.38.0 (20140413.2041)
 -->
<!-- Title: G Pages: 1 -->
<svg width="1169pt" height="401pt"
 viewBox="0.00 0.00 1168.72 401.00" xmlns="http://www.w3.org/2000/svg" xmlns:xlink="http://www.w3.org/1999/xlink">
<g id="graph0" class="graph" transform="scale(1 1) rotate(0) translate(4 397)">
<title>G</title>
<polygon fill="lightgray" stroke="none" points="-4,4 -4,-397 1164.72,-397 1164.72,4 -4,4"/>
<g id="clust1" class="cluster"><title>cluster_entities</title>
<polygon fill="lightgray" stroke="#fff68f" stroke-width="2" points="60.3837,-80 60.3837,-155 450.384,-155 450.384,-80 60.3837,-80"/>
<text text-anchor="middle" x="255.384" y="-139.8" font-family="Times,serif" font-size="14.00">entities</text>
</g>
<g id="clust2" class="cluster"><title>cluster_use_cases</title>
<polygon fill="lightgray" stroke="red" stroke-width="2" points="458.384,-8 458.384,-230 1145.38,-230 1145.38,-8 458.384,-8"/>
<text text-anchor="middle" x="801.884" y="-214.8" font-family="Times,serif" font-size="14.00">use_cases</text>
</g>
<g id="clust3" class="cluster"><title>cluster_external</title>
<polygon fill="lightgray" stroke="deepskyblue" stroke-width="2" points="474.384,-238 474.384,-385 612.384,-385 612.384,-238 474.384,-238"/>
<text text-anchor="middle" x="543.384" y="-369.8" font-family="Times,serif" font-size="14.00">external</text>
</g>
<!-- dep_check.dependency_finder -->
<g id="node1" class="node"><title>dep_check.dependency_finder</title>
<polygon fill="#fff68f" stroke="black" points="282.384,-124 68.3837,-124 68.3837,-88 282.384,-88 282.384,-124"/>
<text text-anchor="middle" x="175.384" y="-102.3" font-family="Arial" font-size="14.00">dep_check.dependency_finder</text>
</g>
<!-- dep_check.checker -->
<g id="node2" class="node"><title>dep_check.checker</title>
<polygon fill="#fff68f" stroke="black" points="441.884,-124 300.884,-124 300.884,-88 441.884,-88 441.884,-124"/>
<text text-anchor="middle" x="371.384" y="-102.3" font-family="Arial" font-size="14.00">dep_check.checker</text>
</g>
<!-- dep_check.use_cases.check -->
<g id="node3" class="node"><title>dep_check.use_cases.check</title>
<polygon fill="red" stroke="black" points="925.384,-199 723.384,-199 723.384,-163 925.384,-163 925.384,-199"/>
<text text-anchor="middle" x="824.384" y="-177.3" font-family="Arial" font-size="14.00">dep_check.use_cases.check</text>
</g>
<!-- dep_check.use_cases.check&#45;&gt;dep_check.dependency_finder -->
<g id="edge13" class="edge"><title>dep_check.use_cases.check&#45;&gt;dep_check.dependency_finder</title>
<path fill="none" stroke="black" d="M723.123,-163.924C719.842,-163.584 716.589,-163.275 713.384,-163 666.658,-158.997 337.293,-164.576 291.384,-155 265.55,-149.611 238.204,-138.582 216.555,-128.453"/>
<polygon fill="black" stroke="black" points="217.872,-125.204 207.342,-124.037 214.846,-131.516 217.872,-125.204"/>
</g>
<!-- dep_check.use_cases.check&#45;&gt;dep_check.checker -->
<g id="edge16" class="edge"><title>dep_check.use_cases.check&#45;&gt;dep_check.checker</title>
<path fill="none" stroke="black" d="M723.119,-163.974C719.839,-163.62 716.587,-163.294 713.384,-163 684.712,-160.371 482.073,-162.89 454.384,-155 435.916,-149.738 417.238,-139.471 402.29,-129.779"/>
<polygon fill="black" stroke="black" points="404.203,-126.847 393.949,-124.181 400.302,-132.66 404.203,-126.847"/>
</g>
<!-- dep_check.use_cases.app_configuration -->
<g id="node5" class="node"><title>dep_check.use_cases.app_configuration</title>
<polygon fill="red" stroke="black" points="977.384,-124 699.384,-124 699.384,-88 977.384,-88 977.384,-124"/>
<text text-anchor="middle" x="838.384" y="-102.3" font-family="Arial" font-size="14.00">dep_check.use_cases.app_configuration</text>
</g>
<!-- dep_check.use_cases.check&#45;&gt;dep_check.use_cases.app_configuration -->
<g id="edge14" class="edge"><title>dep_check.use_cases.check&#45;&gt;dep_check.use_cases.app_configuration</title>
<path fill="none" stroke="black" d="M827.701,-162.7C829.34,-154.154 831.356,-143.645 833.193,-134.067"/>
<polygon fill="black" stroke="black" points="836.643,-134.656 835.09,-124.176 829.769,-133.338 836.643,-134.656"/>
</g>
<!-- dep_check.use_cases.interfaces -->
<g id="node6" class="node"><title>dep_check.use_cases.interfaces</title>
<polygon fill="red" stroke="black" points="793.884,-52 566.884,-52 566.884,-16 793.884,-16 793.884,-52"/>
<text text-anchor="middle" x="680.384" y="-30.3" font-family="Arial" font-size="14.00">dep_check.use_cases.interfaces</text>
</g>
<!-- dep_check.use_cases.check&#45;&gt;dep_check.use_cases.interfaces -->
<g id="edge15" class="edge"><title>dep_check.use_cases.check&#45;&gt;dep_check.use_cases.interfaces</title>
<path fill="none" stroke="black" d="M723.374,-163.224C705.481,-159.817 691.96,-156.745 690.384,-155 667.865,-130.077 669.674,-89.1688 674.144,-62.1586"/>
<polygon fill="black" stroke="black" points="677.606,-62.6813 676.013,-52.2069 670.727,-61.3886 677.606,-62.6813"/>
</g>
<!-- dep_check.use_cases.build -->
<g id="node4" class="node"><title>dep_check.use_cases.build</title>
<polygon fill="red" stroke="black" points="1137.38,-199 943.384,-199 943.384,-163 1137.38,-163 1137.38,-199"/>
<text text-anchor="middle" x="1040.38" y="-177.3" font-family="Arial" font-size="14.00">dep_check.use_cases.build</text>
</g>
<!-- dep_check.use_cases.build&#45;&gt;dep_check.dependency_finder -->
<g id="edge10" class="edge"><title>dep_check.use_cases.build&#45;&gt;dep_check.dependency_finder</title>
<path fill="none" stroke="black" d="M943.123,-163.834C940.18,-163.527 937.262,-163.247 934.384,-163 863.196,-156.882 361.375,-169.362 291.384,-155 265.533,-149.695 238.185,-138.671 216.54,-128.524"/>
<polygon fill="black" stroke="black" points="217.859,-125.274 207.329,-124.098 214.827,-131.583 217.859,-125.274"/>
</g>
<!-- dep_check.use_cases.build&#45;&gt;dep_check.use_cases.app_configuration -->
<g id="edge11" class="edge"><title>dep_check.use_cases.build&#45;&gt;dep_check.use_cases.app_configuration</title>
<path fill="none" stroke="black" d="M993.279,-162.977C964.034,-152.408 926.264,-138.759 895.343,-127.584"/>
<polygon fill="black" stroke="black" points="896.158,-124.157 885.563,-124.05 893.779,-130.741 896.158,-124.157"/>
</g>
<!-- dep_check.use_cases.build&#45;&gt;dep_check.use_cases.interfaces -->
<g id="edge12" class="edge"><title>dep_check.use_cases.build&#45;&gt;dep_check.use_cases.interfaces</title>
<path fill="none" stroke="black" d="M1036.19,-162.642C1029.69,-139.714 1014.83,-99.9172 986.384,-80 957.134,-59.5203 875.689,-48.1744 804.174,-41.9993"/>
<polygon fill="black" stroke="black" points="804.413,-38.5071 794.156,-41.1618 803.829,-45.4827 804.413,-38.5071"/>
</g>
<!-- dep_check.use_cases.app_configuration&#45;&gt;dep_check.use_cases.interfaces -->
<g id="edge7" class="edge"><title>dep_check.use_cases.app_configuration&#45;&gt;dep_check.use_cases.interfaces</title>
<path fill="none" stroke="black" d="M799.733,-87.8761C778.133,-78.3066 751.033,-66.3001 728.117,-56.1478"/>
<polygon fill="black" stroke="black" points="729.47,-52.919 718.909,-52.0683 726.634,-59.319 729.47,-52.919"/>
</g>
<!-- dep_check.use_cases.draw_graph -->
<g id="node7" class="node"><title>dep_check.use_cases.draw_graph</title>
<polygon fill="red" stroke="black" points="704.884,-199 465.884,-199 465.884,-163 704.884,-163 704.884,-199"/>
<text text-anchor="middle" x="585.384" y="-177.3" font-family="Arial" font-size="14.00">dep_check.use_cases.draw_graph</text>
</g>
<!-- dep_check.use_cases.draw_graph&#45;&gt;dep_check.dependency_finder -->
<g id="edge8" class="edge"><title>dep_check.use_cases.draw_graph&#45;&gt;dep_check.dependency_finder</title>
<path fill="none" stroke="black" d="M465.598,-163.873C462.497,-163.565 459.421,-163.273 456.384,-163 383.26,-156.42 363.027,-171.05 291.384,-155 265.818,-149.272 238.684,-138.34 217.092,-128.354"/>
<polygon fill="black" stroke="black" points="218.43,-125.115 207.894,-124.002 215.437,-131.442 218.43,-125.115"/>
</g>
<!-- dep_check.use_cases.draw_graph&#45;&gt;dep_check.use_cases.app_configuration -->
<g id="edge9" class="edge"><title>dep_check.use_cases.draw_graph&#45;&gt;dep_check.use_cases.app_configuration</title>
<path fill="none" stroke="black" d="M644.382,-162.977C681.802,-152.18 730.368,-138.166 769.546,-126.862"/>
<polygon fill="black" stroke="black" points="770.655,-130.185 779.292,-124.05 768.714,-123.46 770.655,-130.185"/>
</g>
<!-- dep_check.main -->
<g id="node8" class="node"><title>dep_check.main</title>
<polygon fill="deepskyblue" stroke="black" points="603.884,-354 482.884,-354 482.884,-318 603.884,-318 603.884,-354"/>
<text text-anchor="middle" x="543.384" y="-332.3" font-family="Arial" font-size="14.00">dep_check.main</text>
</g>
<!-- dep_check.main&#45;&gt;dep_check.use_cases.check -->
<g id="edge4" class="edge"><title>dep_check.main&#45;&gt;dep_check.use_cases.check</title>
<path fill="none" stroke="black" d="M574.8,-317.894C625.945,-290.047 727.166,-234.933 783.725,-204.138"/>
<polygon fill="black" stroke="black" points="785.631,-207.086 792.74,-199.23 782.283,-200.938 785.631,-207.086"/>
</g>
<!-- dep_check.main&#45;&gt;dep_check.use_cases.build -->
<g id="edge2" class="edge"><title>dep_check.main&#45;&gt;dep_check.use_cases.build</title>
<path fill="none" stroke="black" d="M603.933,-321.969C681.588,-304.527 819.902,-270.984 934.384,-230 955.536,-222.428 978.314,-212.376 997.314,-203.428"/>
<polygon fill="black" stroke="black" points="999.074,-206.467 1006.59,-199.005 996.062,-200.148 999.074,-206.467"/>
</g>
<!-- dep_check.main&#45;&gt;dep_check.use_cases.app_configuration -->
<g id="edge5" class="edge"><title>dep_check.main&#45;&gt;dep_check.use_cases.app_configuration</title>
<path fill="none" stroke="black" d="M604.123,-333.91C743.094,-330.001 1077.55,-312.082 1146.38,-230 1165.52,-207.184 1165.46,-185.862 1146.38,-163 1125.35,-137.795 1055.58,-123.908 987.749,-116.27"/>
<polygon fill="black" stroke="black" points="988.081,-112.786 977.762,-115.188 987.327,-119.745 988.081,-112.786"/>
</g>
<!-- dep_check.main&#45;&gt;dep_check.use_cases.interfaces -->
<g id="edge6" class="edge"><title>dep_check.main&#45;&gt;dep_check.use_cases.interfaces</title>
<path fill="none" stroke="black" d="M482.571,-330.461C363.156,-320.278 104.319,-291.523 43.3837,-230 -3.76402,-182.398 -17.3318,-128.979 28.3837,-80 63.5733,-42.2979 377.643,-35.4506 556.719,-34.6483"/>
<polygon fill="black" stroke="black" points="556.742,-38.1483 566.728,-34.6091 556.714,-31.1484 556.742,-38.1483"/>
</g>
<!-- dep_check.main&#45;&gt;dep_check.use_cases.draw_graph -->
<g id="edge3" class="edge"><title>dep_check.main&#45;&gt;dep_check.use_cases.draw_graph</title>
<path fill="none" stroke="black" d="M575.437,-317.88C588.503,-309.055 602.204,-296.974 609.384,-282 620.764,-258.266 611.078,-228.705 600.815,-207.899"/>
<polygon fill="black" stroke="black" points="603.889,-206.225 596.132,-199.008 597.695,-209.487 603.889,-206.225"/>
</g>
<!-- dep_check.infra -->
<g id="node9" class="node"><title>dep_check.infra</title>
<polygon fill="deepskyblue" stroke="black" points="600.384,-282 482.384,-282 482.384,-246 600.384,-246 600.384,-282"/>
<text text-anchor="middle" x="541.384" y="-260.3" font-family="Arial" font-size="14.00">dep_check.infra</text>
</g>
<!-- dep_check.main&#45;&gt;dep_check.infra -->
<g id="edge1" class="edge"><title>dep_check.main&#45;&gt;dep_check.infra</title>
<path fill="none" stroke="black" d="M542.889,-317.697C542.669,-309.983 542.404,-300.712 542.158,-292.112"/>
<polygon fill="black" stroke="black" points="545.657,-292 541.872,-282.104 538.659,-292.2 545.657,-292"/>
</g>
<!-- dep_check.infra&#45;&gt;dep_check.dependency_finder -->
<g id="edge20" class="edge"><title>dep_check.infra&#45;&gt;dep_check.dependency_finder</title>
<path fill="none" stroke="black" d="M482.208,-262.056C450.585,-258.889 412.495,-250.54 384.384,-230 356.743,-209.803 374.645,-182.32 346.384,-163 325.992,-149.059 315.201,-161.55 291.384,-155 266.854,-148.254 240.577,-137.68 219.246,-128.172"/>
<polygon fill="black" stroke="black" points="220.675,-124.978 210.122,-124.037 217.786,-131.353 220.675,-124.978"/>
</g>
<!-- dep_check.infra&#45;&gt;dep_check.use_cases.check -->
<g id="edge19" class="edge"><title>dep_check.infra&#45;&gt;dep_check.use_cases.check</title>
<path fill="none" stroke="black" d="M600.677,-254.904C634.196,-249.515 676.625,-241.325 713.384,-230 736.248,-222.956 760.751,-212.672 780.903,-203.429"/>
<polygon fill="black" stroke="black" points="782.54,-206.527 790.126,-199.132 779.584,-200.182 782.54,-206.527"/>
</g>
<!-- dep_check.infra&#45;&gt;dep_check.use_cases.build -->
<g id="edge18" class="edge"><title>dep_check.infra&#45;&gt;dep_check.use_cases.build</title>
<path fill="none" stroke="black" d="M600.405,-259.157C702.202,-252.362 902.95,-238.177 934.384,-230 957.234,-224.056 981.314,-213.535 1000.74,-203.854"/>
<polygon fill="black" stroke="black" points="1002.56,-206.856 1009.87,-199.194 999.375,-200.621 1002.56,-206.856"/>
</g>
<!-- dep_check.infra&#45;&gt;dep_check.use_cases.interfaces -->
<g id="edge23" class="edge"><title>dep_check.infra&#45;&gt;dep_check.use_cases.interfaces</title>
<path fill="none" stroke="black" d="M482.339,-260.52C327.301,-252.072 -70.9015,-216.795 56.3837,-80 89.663,-44.2343 384.373,-36.5141 556.612,-35.0843"/>
<polygon fill="black" stroke="black" points="556.783,-38.5832 566.756,-35.0062 556.729,-31.5834 556.783,-38.5832"/>
</g>
<!-- dep_check.infra&#45;&gt;dep_check.use_cases.draw_graph -->
<g id="edge22" class="edge"><title>dep_check.infra&#45;&gt;dep_check.use_cases.draw_graph</title>
<path fill="none" stroke="black" d="M550.715,-245.822C556.665,-234.868 564.491,-220.462 571.201,-208.108"/>
<polygon fill="black" stroke="black" points="574.368,-209.611 576.066,-199.153 568.217,-206.27 574.368,-209.611"/>
</g>
<!-- yaml -->
<g id="node10" class="node"><title>yaml</title>
<polygon fill="white" stroke="black" points="337.384,-199 283.384,-199 283.384,-163 337.384,-163 337.384,-199"/>
<text text-anchor="middle" x="310.384" y="-177.3" font-family="Arial" font-size="14.00">yaml</text>
</g>
<!-- dep_check.infra&#45;&gt;yaml -->
<g id="edge17" class="edge"><title>dep_check.infra&#45;&gt;yaml</title>
<path fill="none" stroke="black" d="M482.22,-262.958C442.848,-260.562 391.236,-252.708 351.384,-230 341.814,-224.547 333.439,-215.978 326.796,-207.58"/>
<polygon fill="black" stroke="black" points="329.495,-205.342 320.75,-199.36 323.856,-209.489 329.495,-205.342"/>
</g>
<!-- jinja2 -->
<g id="node11" class="node"><title>jinja2</title>
<polygon fill="white" stroke="black" points="447.384,-199 393.384,-199 393.384,-163 447.384,-163 447.384,-199"/>
<text text-anchor="middle" x="420.384" y="-177.3" font-family="Arial" font-size="14.00">jinja2</text>
</g>
<!-- dep_check.infra&#45;&gt;jinja2 -->
<g id="edge21" class="edge"><title>dep_check.infra&#45;&gt;jinja2</title>
<path fill="none" stroke="black" d="M482.23,-246.033C472.384,-241.716 462.688,-236.426 454.384,-230 446.638,-224.007 439.923,-215.767 434.555,-207.805"/>
<polygon fill="black" stroke="black" points="437.358,-205.686 429.083,-199.069 431.425,-209.402 437.358,-205.686"/>
</g>
</g>
</svg>
